<mxfile host="app.diagrams.net" modified="2023-11-22T12:20:39.065Z" agent="Mozilla/5.0 (Windows NT 10.0; Win64; x64) AppleWebKit/537.36 (KHTML, like Gecko) Chrome/118.0.0.0 Safari/537.36 OPR/104.0.0.0 (Edition std-1)" version="22.1.3" etag="c8V_ErvrgJti5_3m6BRQ" type="github">
  <diagram name="PÃ¡gina-1" id="uZfBf-thRPJc3tt005Er">
    <mxGraphModel>
      <root>
        <mxCell id="0" />
        <mxCell id="1" parent="0" />
      </root>
    </mxGraphModel>
  </diagram>
</mxfile>
